# xmcd
#
# Track frame offsets:
#	150
#	22355
#	57470
#	76092
#	95075
#	118355
#	138485
#	159590
#	184070
#	211072
#
# Disc length: 3073 seconds
#
# Revision: 1
# Processed by: cddbd v1.4PL0 Copyright (c) Steve Scherf et al.
# Submitted via: CDmax 1.8
#
DISCID=900bff0a
DTITLE=Various Artist - Greatest Gsopel Choirs
DYEAR=1900
DGENRE=Blues
TTITLE0=I Want To Be More Like Jesus
TTITLE1=Tell Jesus
TTITLE2=Jesus Will Fix It
TTITLE3=He Lives Today
TTITLE4=I Will Sing Hallelujah
TTITLE5=Jesus Is Coming
TTITLE6=He's Coming Back
TTITLE7=The Lord Is Alright
TTITLE8=Let's Magnify The Lord
TTITLE9=Praise The Lord
EXTD=
EXTT0=
EXTT1=
EXTT2=
EXTT3=
EXTT4=
EXTT5=
EXTT6=
EXTT7=
EXTT8=
EXTT9=
PLAYORDER=
